<svg width="206" height="207" viewBox="0 0 206 207" fill="none" xmlns="http://www.w3.org/2000/svg">
<path d="M206 103.638C206 160.523 159.885 206.638 103 206.638C46.1147 206.638 0 160.523 0 103.638C0 46.7525 46.1147 0.637817 103 0.637817C159.885 0.637817 206 46.7525 206 103.638Z" fill="#3168FD" fill-opacity="0.02"/>
<path d="M180 103.638C180 146.164 145.526 180.638 103 180.638C60.4741 180.638 26 146.164 26 103.638C26 61.1119 60.4741 26.6378 103 26.6378C145.526 26.6378 180 61.1119 180 103.638Z" fill="#3168FD" fill-opacity="0.05"/>
<path d="M154 103.638C154 131.804 131.167 154.638 103 154.638C74.8335 154.638 52 131.804 52 103.638C52 75.4713 74.8335 52.6378 103 52.6378C131.167 52.6378 154 75.4713 154 103.638Z" fill="white"/>
<path d="M102.677 84.8365C107.48 84.8365 111.374 88.7302 111.374 93.5332V100.49C111.374 105.293 107.48 109.187 102.677 109.187C97.8741 109.187 93.9805 105.293 93.9805 100.49V93.5332C93.9805 88.7302 97.8741 84.8365 102.677 84.8365ZM87.3849 103.851C87.1975 102.995 87.8853 102.23 88.7621 102.23H89.349C90.0813 102.23 90.6927 102.772 90.872 103.482C92.2053 108.759 96.9851 112.665 102.677 112.665C108.369 112.665 113.149 108.759 114.482 103.482C114.661 102.772 115.273 102.23 116.005 102.23H116.592C117.469 102.23 118.156 102.995 117.969 103.851C116.645 109.905 111.818 114.648 105.719 115.849C104.983 115.994 104.416 116.617 104.416 117.367V121.63C104.416 122.442 103.758 123.102 102.945 123.102H102.409C101.597 123.102 100.938 122.442 100.938 121.63V117.367C100.938 116.617 100.371 115.994 99.6353 115.849C93.5365 114.648 88.7092 109.905 87.3849 103.851Z" fill="#3168FD"/>
</svg>
