<svg width="357" height="115" viewBox="0 0 357 115" fill="none" xmlns="http://www.w3.org/2000/svg">
    <rect y="36.4541" width="5" height="42.2744" rx="2.5" fill="#D9D9D9" fill-opacity="0.4" />
    <rect x="190" y="26.0377" width="9" height="62.9245" rx="4.5" fill="#D9D9D9"
        fill-opacity="0.4" />
    <rect x="96" y="48.8208" width="5" height="18.4434" rx="2.5" fill="#D9D9D9"
        fill-opacity="0.4" />
    <rect x="286" y="48.8208" width="8" height="18.4434" rx="4" fill="#D9D9D9" fill-opacity="0.4" />
    <rect x="63.8561" y="36.4541" width="5" height="42.2744" rx="2.5" fill="#D9D9D9"
        fill-opacity="0.4" />
    <rect x="239.46" y="36.4541" width="5" height="42.2744" rx="2.5" fill="#D9D9D9"
        fill-opacity="0.4" />
    <rect x="158" y="48.8208" width="8" height="18.4434" rx="4" fill="#D9D9D9" fill-opacity="0.4" />
    <rect x="351.208" y="48.4011" width="5" height="18.3802" rx="2.5" fill="#D9D9D9"
        fill-opacity="0.4" />
    <rect x="14" width="9" height="115" rx="4.5" fill="#D9D9D9" fill-opacity="0.4" />
    <rect x="206" width="8" height="115" rx="4" fill="#D9D9D9" fill-opacity="0.4" />
    <rect x="110" y="23.8679" width="8" height="67.2642" rx="4" fill="#D9D9D9" fill-opacity="0.4" />
    <rect x="305" y="32.5471" width="2" height="49.9057" rx="1" fill="#D9D9D9" fill-opacity="0.4" />
    <rect x="46" width="9" height="115" rx="4.5" fill="#D9D9D9" fill-opacity="0.4" />
    <rect x="223" y="15.1887" width="5" height="84.6226" rx="2.5" fill="#D9D9D9"
        fill-opacity="0.4" />
    <rect x="141" y="32.5471" width="10" height="49.9057" rx="5" fill="#D9D9D9"
        fill-opacity="0.4" />
    <rect x="335.245" y="32.6244" width="5" height="49.9328" rx="2.5" fill="#D9D9D9"
        fill-opacity="0.4" />
    <rect x="31" y="20.6132" width="7" height="74.8585" rx="3.5" fill="#D9D9D9"
        fill-opacity="0.4" />
    <rect x="270" y="20.6132" width="8" height="74.8585" rx="4" fill="#D9D9D9" fill-opacity="0.4" />
    <rect x="127.712" y="41.356" width="5" height="32.4717" rx="2.5" fill="#D9D9D9"
        fill-opacity="0.4" />
    <rect x="319.28" y="41.356" width="5" height="32.4717" rx="2.5" fill="#D9D9D9"
        fill-opacity="0.4" />
    <rect x="80" y="6.5094" width="5" height="101.981" rx="2.5" fill="#D9D9D9" fill-opacity="0.4" />
    <rect x="255.424" y="20.2179" width="5" height="74.7461" rx="2.5" fill="#D9D9D9"
        fill-opacity="0.4" />
    <rect x="177" y="41.2264" width="2" height="32.5472" rx="1" fill="#D9D9D9" fill-opacity="0.4" />
</svg>