<svg width="20" height="20" viewBox="0 0 20 20" fill="none" xmlns="http://www.w3.org/2000/svg">
    <path
        d="M6.25 6.40622C6.25 6.40622 6.30625 5.11716 7.56016 4.08356C8.30469 3.46989 9.19883 3.29216 10 3.28122C10.7316 3.27224 11.3855 3.39606 11.7766 3.58669C12.4449 3.91403 13.75 4.71091 13.75 6.40622C13.75 8.1902 12.6102 8.9988 11.3145 9.88981C10.0187 10.7808 9.6875 11.6547 9.6875 12.6562"
        stroke="#565D66" stroke-width="2.5" stroke-miterlimit="10" stroke-linecap="round" />
    <path
        d="M9.9375 18C10.7659 18 11.4375 17.3284 11.4375 16.5C11.4375 15.6716 10.7659 15 9.9375 15C9.10907 15 8.4375 15.6716 8.4375 16.5C8.4375 17.3284 9.10907 18 9.9375 18Z"
        fill="#565D66" />
</svg>