<svg width="66" height="66" viewBox="0 0 66 66" fill="none" xmlns="http://www.w3.org/2000/svg">
    <defs>
        <radialGradient id="paint0_radial_28_224" cx="0" cy="0" r="1" gradientUnits="userSpaceOnUse"
            gradientTransform="translate(17.6051 26.7279) scale(104.895)">
            <stop stop-color="white" />
            <stop offset="0.506335" stop-color="white" stop-opacity="0.471" />
            <stop offset="1" stop-color="white" stop-opacity="0" />
        </radialGradient>
    </defs>
    <path
        d="M32.9999 65.1834C50.7749 65.1834 65.1844 50.7739 65.1844 32.9989C65.1844 15.2239 50.7749 0.814453 32.9999 0.814453C15.2249 0.814453 0.81543 15.2239 0.81543 32.9989C0.81543 50.7739 15.2249 65.1834 32.9999 65.1834Z"
        fill="url(#paint0_radial_28_224)" fill-opacity="0.95" />
    <path
        d="M32.5608 19.6694C35.9074 19.6694 38.6204 22.3825 38.6204 25.7291V30.5769C38.6204 33.9234 35.9074 36.6363 32.5608 36.6363C29.2139 36.6363 26.5009 33.9234 26.5009 30.5769V25.7291C26.5009 22.3825 29.2139 19.6694 32.5608 19.6694ZM21.9051 32.9187C21.7746 32.3217 22.2539 31.7891 22.8648 31.7891H23.2737C23.784 31.7891 24.21 32.1665 24.3349 32.6612C25.2639 36.3385 28.5945 39.0603 32.5608 39.0603C36.5265 39.0603 39.8572 36.3385 40.7862 32.6612C40.9111 32.1665 41.3371 31.7891 41.8476 31.7891H42.2566C42.8674 31.7891 43.3464 32.3217 43.2158 32.9187C42.2932 37.1368 38.9296 40.4417 34.68 41.2785C34.1675 41.3794 33.7725 41.8136 33.7725 42.3361V45.3066C33.7725 45.8726 33.3137 46.3321 32.747 46.3321H32.374C31.808 46.3321 31.3486 45.8726 31.3486 45.3066V42.3361C31.3486 41.8136 30.954 41.3794 30.4411 41.2785C26.1915 40.4417 22.8279 37.1368 21.9051 32.9187Z"
        fill="#3168FD" />
</svg>
