<svg width="207" height="207" viewBox="0 0 207 207" fill="none" xmlns="http://www.w3.org/2000/svg">
    <path d="M206.085 103.936C206.085 160.821 159.971 206.936 103.085 206.936C46.2001 206.936 0.0854492 160.821 0.0854492 103.936C0.0854492 47.0502 46.2001 0.935577 103.085 0.935577C159.971 0.935577 206.085 47.0502 206.085 103.936Z" fill="#3168FD" fill-opacity="0.02"/>
    <path d="M180.085 103.936C180.085 146.462 145.611 180.936 103.085 180.936C60.5595 180.936 26.0854 146.462 26.0854 103.936C26.0854 61.4097 60.5595 26.9356 103.085 26.9356C145.611 26.9356 180.085 61.4097 180.085 103.936Z" fill="#3168FD" fill-opacity="0.05"/>
    <path d="M154.085 103.936C154.085 132.102 131.252 154.936 103.085 154.936C74.9189 154.936 52.0854 132.102 52.0854 103.936C52.0854 75.7691 74.9189 52.9356 103.085 52.9356C131.252 52.9356 154.085 75.7691 154.085 103.936Z" fill="white"/>
    <path d="M89.0854 85.9356H99.0854V120.936H89.0854V85.9356Z" fill="#3168FD"/>
    <path d="M108.085 85.9356H118.085V120.936H108.085V85.9356Z" fill="#3168FD"/>
</svg>