<svg width="76" height="76" viewBox="0 0 76 76" fill="none" xmlns="http://www.w3.org/2000/svg">
<path d="M76 38C76 58.9868 58.9868 76 38 76C17.0132 76 0 58.9868 0 38C0 17.0132 17.0132 0 38 0C58.9868 0 76 17.0132 76 38Z" fill="black" fill-opacity="0.5"/>
<path fill-rule="evenodd" clip-rule="evenodd" d="M51.0806 27.0858C51.8616 27.8668 51.8616 29.1332 51.0806 29.9142L33.6639 47.3309C33.2888 47.706 32.7801 47.9167 32.2497 47.9167C31.7192 47.9167 31.2105 47.706 30.8355 47.3309L22.9188 39.4142C22.1377 38.6332 22.1377 37.3668 22.9188 36.5858C23.6998 35.8047 24.9662 35.8047 25.7472 36.5858L32.2497 43.0882L48.2521 27.0858C49.0332 26.3047 50.2995 26.3047 51.0806 27.0858Z" fill="white"/>
</svg>
