<svg width="90" height="50" viewBox="0 0 90 50" fill="none" xmlns="http://www.w3.org/2000/svg">
    <g filter="url(#filter0_d_97_233)">
        <path fill-rule="evenodd" clip-rule="evenodd" d="M14 0C8.47715 0 4 4.47715 4 10V22C4 27.5228 8.47715 32 14 32H39.1639L44.5 41.5312L49.8361 32H76C81.5229 32 86 27.5228 86 22V10C86 4.47715 81.5229 0 76 0H14Z" fill="#FE3A3B"/>
    </g>
    <path d="M71.3297 9.26562V23.3906H69.5797V9.26562H71.3297ZM59.6266 19.5C63.3297 17.7422 65.0328 15.3516 65.3453 12.1406H60.3453V10.7656H67.111C67.111 14.9688 65.4781 18.5391 60.5328 20.8906L59.6266 19.5Z" fill="white"/>
    <path d="M58.7714 15.7031V17.1406H45.8807V15.7031H58.7714ZM47.4589 23.2031V18.3125H57.2401V19.7188H49.1776V21.7969H57.3495V23.2031H47.4589ZM47.5057 14.5469V9.65625H57.162V11.0781H49.2245V13.1406H57.3182V14.5469H47.5057Z" fill="white"/>
    <path d="M44.0568 9.26562V17.5781H42.3224V15.625H39.4786V16.7188H32.838V10.3281H39.4786V11.4219H42.3224V9.26562H44.0568ZM34.4786 20.6719C34.463 18.9531 36.299 17.9453 39.2755 17.9531C42.2677 17.9453 44.0958 18.9531 44.1036 20.6719C44.0958 22.3906 42.2677 23.375 39.2755 23.375C36.299 23.375 34.463 22.3906 34.4786 20.6719ZM34.5724 15.3281H37.7599V11.7031H34.5724V15.3281ZM36.1974 20.6719C36.1896 21.5469 37.3146 22.0312 39.2755 22.0312C41.2521 22.0312 42.3693 21.5469 42.3693 20.6719C42.3693 19.7578 41.2521 19.2891 39.2755 19.2812C37.3146 19.2891 36.1896 19.7578 36.1974 20.6719ZM39.4786 14.2188H42.3224V12.7969H39.4786V14.2188Z" fill="white"/>
    <path d="M30.4047 9.26562V16.5H28.6703V12.9219H25.8578V11.5312H28.6703V9.26562H30.4047ZM18.4984 15.1875C20.7719 14.5 21.9515 12.7578 21.9515 10.8594V9.73438H23.7015V10.8594C23.6937 12.6016 24.8344 14.25 27.0297 14.9219L26.1078 16.2656C24.5765 15.7578 23.4672 14.7578 22.8422 13.4766C22.2328 14.9062 21.0687 16.0312 19.4047 16.5781L18.4984 15.1875ZM21.1078 18.4688V17.1094H30.4047V20.7656H22.8265V21.8438H30.8578V23.2188H21.1234V19.4688H28.6859V18.4688H21.1078Z" fill="white"/>
    <defs>
        <filter id="filter0_d_97_233" x="0" y="0" width="90" height="49.5312" filterUnits="userSpaceOnUse" color-interpolation-filters="sRGB">
            <feFlood flood-opacity="0" result="BackgroundImageFix"/>
            <feColorMatrix in="SourceAlpha" type="matrix" values="0 0 0 0 0 0 0 0 0 0 0 0 0 0 0 0 0 0 127 0" result="hardAlpha"/>
            <feOffset dy="4"/>
            <feGaussianBlur stdDeviation="2"/>
            <feComposite in2="hardAlpha" operator="out"/>
            <feColorMatrix type="matrix" values="0 0 0 0 0 0 0 0 0 0 0 0 0 0 0 0 0 0 0.25 0"/>
            <feBlend mode="normal" in2="BackgroundImageFix" result="effect1_dropShadow_97_233"/>
            <feBlend mode="normal" in="SourceGraphic" in2="effect1_dropShadow_97_233" result="shape"/>
        </filter>
    </defs>
</svg>